M48
;Layer_Color=9474304
;FILE_FORMAT=2:5
INCH,LZ
;TYPE=PLATED
T1F00S00C0.02953
T2F00S00C0.03937
T3F00S00C0.04000
T4F00S00C0.04331
T5F00S00C0.05512
T6F00S00C0.06000
T7F00S00C0.08600
%
T01
X072Y0114
Y0154
X0711Y02795
X04265Y0267
Y0307
X0427Y0433
X07075Y04665
X0711Y03195
X07075Y05065
X0427Y0473
T02
X06615Y01535
X06715
X0404Y0311
X0394
X066Y03205
X067
X0671Y05055
X0661
X0402Y04725
X0392
T03
X0598Y01515
X0608
X0618
X0628
X0638
X03685Y03105
X03585
X03485
X03385
X03285
X05985Y03195
X06085
X06185
X06285
X06385
X06375Y05055
X06275
X06175
X06075
X05975
X03665Y04705
X03565
X03465
X03365
X03265
T04
X05535Y00925
Y01125
Y01225
Y01325
X055Y0259
Y0279
Y0289
Y0299
X02665Y0296
Y0306
Y0286
Y0266
X02715Y0424
Y0444
Y0454
Y0464
X0546Y04675
Y04475
Y04775
Y04875
T05
X0597495Y0113233
X0617495
X0637495
X0657495
X07555Y01335
Y01535
X0749Y03015
X0657495Y0279233
X0637495
X0617495
X0597495
X04635Y029
Y031
X0364495Y0271733
X0344495
X0324495
X0304495
X0179Y0259
X0159
X0144495Y0438733
X0164495
X0184495
X0204495
X018Y0352
X016
X0322995Y0434733
X0342995
X0362995
X0382995
X04555Y04515
X0596495Y0467733
X0616495
X0636495
X0656495
X0749Y03215
X0746Y04845
Y05045
X04555Y04715
X02255Y0539
X02055
T06
X0677495Y0113233
Y0279233
X0384495Y0271733
X0224495Y0438733
X0402995Y0434733
X0676495Y0467733
T07
X0584Y0155
X0637Y0218
X03145Y0314
X03675Y0377
X05845Y0323
X06375Y0386
X06365Y0572
X05835Y0509
X03655Y0537
X03125Y0474
M30
